<svg width="165" height="153" viewBox="0 0 165 153" fill="none" xmlns="http://www.w3.org/2000/svg">
<path fill-rule="evenodd" clip-rule="evenodd" d="M41.3508 104.929C39.552 103.315 37.7729 101.323 36.3156 98.8335C33.8319 94.59 33 90.146 33 85.939C33 83.8387 33.025 80.9954 33.5053 78.353C34.024 75.4992 35.4668 70.5918 40.2192 66.9719C44.4033 63.785 48.9666 63.3806 50.7812 63.249C52.4093 63.131 54.4132 63.1392 55.9669 63.1455C56.2913 63.1468 56.5961 63.1481 56.8738 63.1481C63.0055 63.1481 69.2524 62.1077 76.948 60.7847C77.0949 60.7595 77.2424 60.7341 77.3904 60.7086C84.5826 59.4715 93.1255 58.002 102.012 58.002C106.312 58.002 111.142 58.8795 115.5 61.8056C119.992 64.8225 122.407 68.9549 123.673 72.5512C124.846 75.8857 125.173 79.1478 125.321 81.3344C125.391 82.369 125.47 84.4424 125.523 85.841C125.548 86.4793 125.566 86.9771 125.577 87.1714C125.622 88.0267 125.771 89.0289 126.079 90.8714C126.096 90.9727 126.114 91.0782 126.132 91.1876C126.396 92.7544 126.796 95.1306 126.94 97.5681C127.294 103.574 126.176 111.421 119.358 118.179C114.843 122.655 110.017 125.824 105.624 128.327C104.179 129.869 102.359 131.505 100.086 132.939C95.8983 135.58 91.2999 137.552 86.4686 138.128C86.1299 138.244 85.7948 138.354 85.4637 138.457C81.8033 139.59 77.9557 140.188 74.0812 139.951C71.4954 140.068 68.6191 139.983 65.7477 139.472C62.545 138.902 57.5729 137.496 53.516 133.474C51.9562 131.928 50.3536 129.73 49.2454 128.118C47.93 126.205 46.4269 123.818 45.1037 121.321C43.9059 119.06 42.318 115.724 41.5688 112.161C41.2383 110.59 40.8443 107.966 41.3508 104.929Z" fill="#EC5128"/>
<path fill-rule="evenodd" clip-rule="evenodd" d="M34.0736 88.1702C35.608 89.6245 37.1809 91.2343 38.9839 93.0833L39.0754 93.1772C39.6219 96.4398 40.4369 100.37 41.6909 104.501C38.2985 99.2775 35.7161 93.7098 34.0736 88.1702ZM79.0254 148.033C78.7773 148.073 78.5292 148.113 78.2809 148.151C58.3808 151.206 36.5233 145.792 21.6585 126.371C10.3221 111.561 2.72078 92.593 3.00786 73.669C3.28873 55.1546 11.2192 37.1451 29.1844 24.868C33.6848 18.7733 40.0529 14.7229 47.6022 12.2773C55.8687 9.59942 68.3341 6.1373 81.1272 4.29733C93.1968 2.56141 108.535 1.78366 120.667 7.13298C126.737 9.80928 131.534 13.7101 135.338 18.1263C138.418 19.6291 141.232 21.5716 143.753 23.9122C149.942 29.6586 153.513 36.9998 155.674 43.7416C159.903 56.9365 160 72.125 160 80.9635C160 91.7754 156.429 99.3409 152.876 105.251C151.708 107.194 150.727 108.726 149.885 110.042C148.015 112.965 146.825 114.825 145.762 117.771C139.095 136.25 123.896 145.055 107.434 147.425C106.612 147.544 105.713 147.734 104.279 148.037C103.652 148.17 102.921 148.324 102.05 148.504C99.6238 149.004 96.3828 149.628 93.0083 149.882C89.8527 150.119 84.3857 150.176 79.0254 148.033ZM116.34 86.5699C114.194 89.7023 111.713 92.8647 108.91 96.4376C107.777 97.8814 106.592 99.3922 105.355 100.995C105.346 101.007 105.337 101.019 105.327 101.031C100.64 104.155 94.8426 106.184 88.3577 106.925C90.145 104.514 91.2022 101.529 91.2022 98.2978C91.2022 90.2896 84.7103 83.7978 76.7022 83.7978C75.3372 83.7978 74.0883 83.623 72.86 83.2342C73.344 81.4363 73.9028 79.8879 74.476 78.6985C82.7987 61.4291 93.2364 49.7024 106.586 45.3465C107.193 45.7358 107.735 46.1698 108.222 46.6421C110.599 48.9488 113.058 51.4204 115.254 53.9789C116.464 57.3328 117.374 61.1385 117.881 65.2364C118.844 73.0232 118.197 80.6733 116.34 86.5699Z" fill="#EC5128"/>
<path fill-rule="evenodd" clip-rule="evenodd" d="M89.528 54.5011C89.4128 54.5011 89.2968 54.5011 89.1798 54.5011C84.7136 54.5011 80.2481 55.2791 74.2663 56.3668C74.1439 56.3891 74.0208 56.4115 73.897 56.434C68.3574 57.442 61.4417 58.7004 54 58.7004C45.9919 58.7004 39.5 52.2085 39.5 44.2004C39.5 36.1923 45.9919 29.7004 54 29.7004C58.5881 29.7004 63.1314 28.916 69.078 27.8347C69.2451 27.8043 69.4136 27.7736 69.5834 27.7427C75.0653 26.7446 81.8947 25.5011 89.1798 25.5011C89.7128 25.5011 90.2886 25.4962 90.9026 25.491C99.2973 25.4196 114.847 25.2874 126.277 36.7708C131.926 42.4466 131.905 51.6275 126.229 57.2769C120.553 62.9263 111.372 62.9049 105.723 57.2291C104.765 56.267 103.461 55.5196 100.849 55.0424C97.8836 54.5006 94.56 54.5008 89.528 54.5011Z" fill="#EC5128"/>
<path fill-rule="evenodd" clip-rule="evenodd" d="M89.528 71.5011C89.4128 71.5011 89.2968 71.5011 89.1798 71.5011C84.7136 71.5011 80.2481 72.2791 74.2663 73.3668C74.1439 73.3891 74.0208 73.4115 73.897 73.434C68.3574 74.442 61.4417 75.7004 54 75.7004C45.9919 75.7004 39.5 69.2085 39.5 61.2004C39.5 53.1923 45.9919 46.7004 54 46.7004C58.5881 46.7004 63.1314 45.916 69.078 44.8347C69.2451 44.8043 69.4136 44.7736 69.5834 44.7427C75.0653 43.7446 81.8947 42.5011 89.1798 42.5011C89.7128 42.5011 90.2886 42.4962 90.9026 42.491C99.2973 42.4196 114.847 42.2874 126.277 53.7708C131.926 59.4466 131.905 68.6275 126.229 74.2769C120.553 79.9263 111.372 79.9049 105.723 74.2291C104.765 73.267 103.461 72.5196 100.849 72.0424C97.8836 71.5006 94.56 71.5008 89.528 71.5011Z" fill="#EC5128"/>
<path d="M98.3941 21.2347C97.2029 21.6102 95.8529 23.0184 95.1912 24.5516C94.3441 26.5856 94.3441 28.2753 95.1912 30.3092C96.1441 32.5309 97.4676 33.5635 99.6118 33.7513C101.624 33.9077 103.185 33.1254 104.429 31.248C105.515 29.6521 105.726 26.4917 104.906 24.5829C103.688 21.7667 101.094 20.4212 98.3941 21.2347Z" fill="white"/>
<path d="M113.853 21.5164C109.512 23.7381 109.538 31.2167 113.906 33.3758C117.876 35.3158 122.165 31.0915 121.265 26.0849C120.55 22.2361 116.897 19.9518 113.853 21.5164Z" fill="white"/>
<path d="M31 59.0792L31.7412 58.9853C32.4294 58.8915 32.4559 58.954 32.4029 60.1431C32.0853 67.434 32.0324 78.6362 32.2971 82.3599C33.5147 99.6327 37.2735 112.525 43.0971 119.221C46.6706 123.351 49.6088 124.791 54.5588 124.791C57.7088 124.791 60.1176 124.165 63.7706 122.444C65.0412 121.85 66.1 121.411 66.1529 121.443C66.2059 121.505 66.55 122.945 66.9206 124.634C67.2912 126.355 67.6882 127.826 67.7676 127.983C67.8735 128.108 70.6 127.545 73.8559 126.731L79.7588 125.229L79.5735 124.29C78.5412 118.282 78.2765 114.653 78.2765 106.141C78.2765 99.3824 78.3824 96.5349 78.7265 93.6248C79.3088 88.8998 79.3618 88.7746 80.05 88.7746C80.3676 88.7746 80.8971 88.6807 81.2412 88.5869C81.8235 88.3991 81.8235 88.3991 81.8235 81.2647V74.1616L75.4176 73.9426C71.8706 73.8487 65.7824 73.7235 61.8382 73.6922L54.6912 73.5984L54.6118 82.7667L54.5588 91.935L56.4647 91.716C57.5235 91.6221 59.5353 91.3405 60.9118 91.1528C63.0824 90.8086 63.4529 90.8399 63.6647 91.2153C63.7971 91.4657 63.85 93.8125 63.7706 96.4097C63.6647 100.665 63.5853 101.354 62.9765 102.918C61.7059 106.173 59.2706 108.488 56.5176 108.989C53.6324 109.521 50.2971 105.015 48.7882 98.4749C47.2794 92.1228 46.7235 82.8919 47.1471 71.5644C47.4118 64.5865 47.4647 63.2409 47.8353 59.2357L47.9676 57.5459L50.8 57.3269C52.3618 57.2017 59.4029 56.6385 66.4441 56.0439C73.5118 55.4494 79.3353 54.98 79.4147 54.98C79.4941 54.98 79.5735 51.757 79.5735 47.7831V40.5861H31V59.0792Z" fill="white"/>
<path d="M87.7794 42.9955C88.0176 46.8756 88.6794 61.8641 88.8647 67.653C88.9706 70.5631 89.05 73.0977 89.0765 73.2854C89.0765 73.4419 88.7059 73.6296 88.2559 73.6922L87.3824 73.7861V92.2792L88.5471 92.0915C89.1824 91.9663 89.7647 91.9976 89.8441 92.1228C89.9235 92.248 90.0559 95.2206 90.1618 98.694L90.3471 105.046H88.9706V123.508H89.5529C89.8706 123.508 91.4588 123.351 93.0471 123.195C98.4206 122.6 126.771 119.753 127.194 119.753C127.565 119.753 127.618 118.908 127.618 112.4V105.046H103.265V97.8804C103.265 91.3092 103.291 90.6834 103.741 90.5269C103.979 90.4643 105.276 90.3079 106.574 90.1827C107.897 90.0889 112.424 89.6508 116.632 89.244C120.868 88.8059 124.759 88.4617 125.315 88.3991L126.294 88.3365V73.7548L114.859 73.6922L103.397 73.5984L103.318 57.0766L103.265 40.5861H87.6471L87.7794 42.9955Z" fill="white"/>
<path d="M104.853 59.0479L105.462 58.9227C105.779 58.8289 108.426 58.3908 111.338 57.9527C114.25 57.5146 119.597 56.6385 123.197 56.044C126.797 55.4494 129.815 54.98 129.868 54.98C129.947 54.98 130 51.7258 130 47.7831V40.5861H104.853V59.0479Z" fill="white"/>
</svg>
