<svg width="500" height="173" viewBox="0 0 500 173" fill="none" xmlns="http://www.w3.org/2000/svg">
<path d="M133.882 0.394206C131.516 1.02477 128.834 3.38937 127.519 5.96415C125.837 9.37969 125.837 12.2172 127.519 15.6327C129.412 19.3636 132.042 21.0976 136.301 21.4129C140.298 21.6756 143.4 20.3619 145.872 17.2091C148.028 14.5293 148.448 9.22205 146.818 6.0167C144.399 1.2875 139.246 -0.972008 133.882 0.394206Z" fill="#EC5128"/>
<path d="M164.592 0.867132C155.968 4.59795 156.021 17.1566 164.697 20.7823C172.585 24.0402 181.104 16.9464 179.316 8.53895C177.896 2.07571 170.639 -1.7602 164.592 0.867132Z" fill="#EC5128"/>
<path d="M251.41 25.6166L242.786 25.8268L243.102 32.9731C243.312 36.9141 243.47 43.9029 243.47 48.527V56.9344L246.73 56.5666C248.518 56.409 253.987 56.0937 258.93 55.936C267.449 55.6733 268.027 55.6733 269.658 56.7242C277.125 61.506 275.126 86.0978 265.556 106.538C262.558 112.949 257.09 120.831 251.568 126.611C247.098 131.341 239.894 137.699 239.053 137.699C238.895 137.699 238.737 130.5 238.737 121.672V105.645L239.947 105.435C240.578 105.33 244.259 104.962 248.15 104.647C252.041 104.332 255.302 104.016 255.354 103.911C255.459 103.859 255.565 99.2345 255.67 93.6646L255.828 83.5756H252.41C250.516 83.5756 246.678 83.418 243.891 83.2078L238.737 82.8925V25.7742L223.382 25.8793L207.975 26.037L208.133 31.2916C208.238 34.1817 208.764 46.0047 209.29 57.565C209.868 69.1253 210.341 79.004 210.341 79.477C210.341 80.055 209.921 80.4228 209.342 80.4228C208.133 80.4228 208.133 80.4228 206.66 94.19C205.188 107.852 205.03 106.696 208.448 106.696H211.34L211.603 108.903C211.866 110.9 213.023 134.441 213.759 152.937C213.917 156.563 214.18 160.767 214.338 162.238L214.601 165.023H239.368L245.311 162.133C276.862 146.737 295.582 119.833 299.999 83.5756C303.102 57.8803 296.634 33.2359 285.433 27.9812C281.279 26.0895 269.184 25.1962 251.41 25.6166Z" fill="#EC5128"/>
<path d="M0 56.8293L1.47239 56.6717C2.83961 56.5141 2.89219 56.6192 2.78702 58.6159C2.156 70.8593 2.05083 89.671 2.57668 95.9241C4.99561 124.93 12.4627 146.579 24.0315 157.824C31.1305 164.76 36.9675 167.177 46.8009 167.177C53.0586 167.177 57.8439 166.126 65.1006 163.236C67.6247 162.238 69.7281 161.502 69.8333 161.555C69.9385 161.66 70.6221 164.077 71.3583 166.915C72.0945 169.805 72.8833 172.274 73.041 172.537C73.2513 172.747 78.6676 171.801 85.1356 170.435L96.8622 167.913L96.4941 166.337C94.4432 156.248 93.9174 150.152 93.9174 135.86C93.9174 124.509 94.1277 119.728 94.8113 114.841C95.9682 106.906 96.0734 106.696 97.4406 106.696C98.0716 106.696 99.1233 106.538 99.8069 106.381C100.964 106.066 100.964 106.066 100.964 94.0849V82.1568L88.2382 81.789C81.1917 81.6314 69.0971 81.4212 61.2619 81.3686L47.0639 81.211L46.9061 96.6072L46.8009 112.003L50.5871 111.636C52.6905 111.478 56.687 111.005 59.4214 110.69C63.7334 110.112 64.4696 110.164 64.8903 110.795C65.1532 111.215 65.2584 115.156 65.1006 119.518C64.8903 126.664 64.7325 127.82 63.5231 130.447C60.999 135.912 56.1611 139.801 50.6922 140.641C44.9604 141.535 38.3347 133.968 35.3373 122.986C32.34 112.319 31.2357 96.8174 32.077 77.7955C32.6029 66.0775 32.7081 63.8181 33.4443 57.0921L33.7072 54.2546L39.3338 53.8867C42.4364 53.6765 56.424 52.7307 70.4117 51.7323C84.452 50.7339 96.0208 49.9457 96.1785 49.9457C96.3363 49.9457 96.4941 44.5334 96.4941 37.86V25.7743H0V56.8293Z" fill="#EC5128"/>
<path d="M112.796 29.8203C113.269 36.3361 114.583 61.506 114.952 71.2271C115.162 76.114 115.32 80.3703 115.372 80.6855C115.372 80.9483 114.636 81.2635 113.742 81.3686L112.007 81.5263V112.581L114.32 112.266C115.583 112.056 116.739 112.108 116.897 112.319C117.055 112.529 117.318 117.521 117.528 123.353L117.896 134.02H115.162V165.023H116.319C116.95 165.023 120.105 164.76 123.26 164.497C133.935 163.499 190.254 158.717 191.095 158.717C191.831 158.717 191.936 157.299 191.936 146.369V134.02H143.558V121.987C143.558 110.952 143.61 109.901 144.504 109.639C144.978 109.534 147.554 109.271 150.131 109.061C152.76 108.903 161.752 108.167 170.114 107.484C178.527 106.749 186.257 106.171 187.361 106.066L189.307 105.96V81.4737L166.59 81.3686L143.821 81.211L143.663 53.4663L143.558 25.7742H112.533L112.796 29.8203Z" fill="#EC5128"/>
<path d="M146.713 56.7768L147.922 56.5666C148.554 56.409 153.812 55.6733 159.596 54.9377C165.381 54.202 176.003 52.7307 183.155 51.7323C190.306 50.7339 196.301 49.9457 196.406 49.9457C196.564 49.9457 196.669 44.4809 196.669 37.86V25.7743H146.713V56.7768Z" fill="#EC5128"/>
<path d="M419.894 27.4557C418.316 36.9141 414.74 64.4486 412.742 82.8925L412.111 88.7252L410.534 89.0404C409.692 89.1981 407.957 89.3557 406.747 89.3557H404.486L404.697 96.5546C404.854 100.548 405.065 106.486 405.222 109.744L405.538 115.682L407.063 115.366C408.22 115.104 408.693 115.261 408.903 115.839C409.166 116.522 407.536 138.697 405.591 160.399L405.328 163.919L407.063 164.182C409.271 164.603 429.306 167.02 429.412 166.915C429.464 166.915 430.253 160.924 431.147 153.725C433.04 138.592 436.774 112.529 437.037 112.266C437.405 111.898 457.966 109.113 458.228 109.376C458.386 109.534 459.385 113.527 460.384 118.309C463.487 132.391 467.221 145.843 471.795 159.506C473.215 163.814 474.582 167.65 474.793 167.966C475.003 168.333 478.842 167.493 486.677 165.391C493.04 163.657 498.298 162.185 498.404 162.133C498.509 162.028 497.983 159.768 497.247 157.088C495.406 150.31 492.514 136.438 490.936 126.664C489.569 118.204 487.781 104.069 488.097 103.806C488.202 103.754 490.831 103.176 493.986 102.545C497.142 101.967 499.823 101.336 499.981 101.179C500.244 100.916 497.667 81.5263 497.299 81.1584C497.247 81.1059 492.987 81.5788 487.834 82.3145C478.632 83.523 453.548 86.308 444.924 86.9911L440.56 87.359L440.875 85.8876C441.033 85.0469 442.242 77.9531 443.557 70.1762C444.872 62.3467 446.081 55.6208 446.239 55.1478C446.555 54.0969 448.027 53.624 451.077 53.624C452.497 53.624 453.285 53.8342 453.285 54.2546C453.285 54.9902 456.756 75.3783 457.282 78.0056L457.597 79.5295L469.482 79.1617C476.002 78.9515 481.471 78.6888 481.576 78.5837C481.734 78.4786 481.629 72.2781 481.366 64.869L480.893 51.417L482.102 50.9441C482.786 50.6814 484.206 50.4712 485.257 50.4712C486.309 50.4712 488.097 50.3135 489.201 50.1559L491.147 49.7881V25.7742H420.209L419.894 27.4557Z" fill="#EC5128"/>
<path d="M317.931 26.8777C312.777 27.0879 308.518 27.4032 308.465 27.4557C308.413 27.5608 308.728 34.5495 309.149 43.0096L309.938 58.4057L311.252 58.0905C315.985 57.1446 355.845 53.3087 356.318 53.7816C356.476 53.9393 355.319 55.8309 353.741 57.9854C352.164 60.1398 347.852 66.2877 344.171 71.7L337.545 81.4737H334.548C332.918 81.4212 329.079 81.211 326.029 80.9483C322.979 80.7381 320.455 80.5279 320.402 80.5804C320.402 80.633 319.982 85.5198 319.508 91.4576C319.035 97.3954 318.509 103.228 318.352 104.437L318.089 106.696H320.455C321.77 106.696 322.874 106.854 322.874 107.117C322.874 107.327 321.559 110.374 319.982 113.895C318.404 117.468 315.933 123.669 314.46 127.715L311.831 135.071V166.547L313.303 166.337C314.671 166.074 365.415 161.45 379.929 160.241C383.715 159.926 387.291 159.611 387.974 159.453L389.131 159.243V135.071H363.89C347.116 135.071 338.649 134.914 338.649 134.546C338.649 132.917 347.484 116.785 352.374 109.586L354.846 105.855L366.046 105.225C372.251 104.857 378.667 104.437 380.35 104.226L383.347 103.911V83.5756H377.563C374.355 83.5756 371.778 83.3654 371.778 83.1027C371.778 82.5247 380.77 71.2797 388.658 61.9789L394.337 55.3055L392.76 53.8342C391.918 53.046 391.235 52.2052 391.235 51.9425C391.235 51.7323 392.392 51.5221 393.811 51.5221H396.336L396.704 40.5924C396.914 34.6021 397.23 29.1898 397.335 28.6118C397.545 27.771 397.335 27.4032 396.388 27.1405C394.548 26.5624 328.658 26.2997 317.931 26.8777Z" fill="#EC5128"/>
</svg>
