<?xml version="1.0" standalone="no"?>
<!DOCTYPE svg PUBLIC "-//W3C//DTD SVG 20010904//EN"
 "http://www.w3.org/TR/2001/REC-SVG-20010904/DTD/svg10.dtd">
<svg version="1.0" xmlns="http://www.w3.org/2000/svg"
 width="660.000000pt" height="660.000000pt" viewBox="0 0 660.000000 660.000000"
 preserveAspectRatio="xMidYMid meet">
<metadata>
Created by potrace 1.14, written by Peter Selinger 2001-2017
</metadata>
<g transform="translate(0.000000,660.000000) scale(0.100000,-0.100000)"
fill="#000000" stroke="none">
<path d="M3938 6244 c-3 -2 -77 -7 -164 -10 -197 -6 -248 -10 -404 -30 -14 -1
-45 -5 -70 -8 -43 -5 -103 -14 -145 -22 -10 -2 -37 -6 -60 -9 -22 -4 -98 -18
-170 -32 -71 -14 -139 -27 -150 -29 -11 -2 -38 -8 -60 -14 -22 -5 -56 -13 -75
-16 -19 -3 -38 -8 -43 -11 -4 -2 -17 -6 -30 -9 -45 -8 -64 -13 -139 -34 -43
-11 -85 -23 -95 -24 -25 -5 -305 -86 -323 -93 -8 -3 -18 -7 -22 -8 -5 -2 -9
-3 -10 -4 -2 -2 -13 -4 -26 -7 -41 -7 -215 -76 -293 -114 -166 -84 -361 -239
-470 -375 -13 -17 -60 -57 -104 -89 -44 -33 -82 -62 -85 -65 -3 -3 -32 -28
-65 -56 -90 -75 -225 -215 -310 -320 -21 -28 -42 -52 -46 -55 -3 -3 -8 -9 -10
-15 -2 -5 -31 -50 -64 -100 -99 -149 -167 -282 -234 -460 -36 -98 -86 -267
-97 -332 -2 -12 -6 -35 -9 -50 -3 -16 -8 -44 -10 -63 -3 -19 -7 -42 -10 -50
-26 -95 -27 -580 -1 -740 3 -14 10 -59 16 -100 7 -41 21 -115 32 -165 24 -110
26 -119 28 -122 2 -2 4 -7 5 -13 1 -5 4 -13 5 -17 1 -5 3 -12 4 -18 1 -5 8
-30 16 -55 7 -25 14 -47 15 -50 20 -70 30 -103 45 -140 10 -25 31 -76 45 -115
15 -38 36 -90 47 -115 12 -25 21 -46 20 -47 0 -1 25 -51 55 -110 30 -59 64
-126 75 -148 11 -22 24 -41 29 -43 5 -2 9 -9 9 -16 0 -8 9 -25 20 -39 12 -15
21 -30 21 -34 1 -4 40 -66 87 -137 48 -70 94 -139 103 -153 66 -98 266 -317
379 -412 30 -25 64 -54 75 -64 28 -25 189 -135 195 -133 3 0 16 -9 30 -22 13
-12 27 -22 31 -22 3 0 38 -17 77 -39 136 -75 382 -169 527 -201 92 -20 140
-29 250 -46 166 -24 573 -24 690 1 62 13 92 12 153 -9 37 -13 89 -26 115 -30
27 -4 59 -10 70 -12 18 -4 169 -15 212 -16 16 0 167 13 195 17 48 7 115 17
135 21 10 2 37 6 59 10 22 3 48 10 57 14 9 5 18 7 21 5 2 -2 28 2 58 10 30 8
56 12 58 10 2 -2 15 0 28 5 13 5 45 12 71 15 27 3 62 9 78 12 17 4 32 7 35 8
3 0 21 4 40 8 19 4 46 10 60 13 14 3 36 7 49 10 13 3 39 11 57 19 19 8 34 12
34 10 0 -4 46 12 115 40 11 4 25 9 30 10 6 2 36 14 67 29 31 14 59 26 62 26 2
0 48 25 101 55 54 30 99 55 101 55 2 0 12 7 22 16 9 8 49 39 87 67 110 81 212
180 297 287 23 30 46 57 50 58 5 2 8 10 8 18 0 8 4 14 8 14 5 0 14 10 20 23 7
12 23 40 37 62 44 69 111 206 150 305 50 126 92 209 150 300 177 274 318 537
314 584 0 5 3 12 8 15 16 10 68 196 88 308 14 85 21 155 20 225 0 43 2 78 5
78 3 0 5 16 5 35 0 19 -2 35 -5 35 -3 0 -5 16 -5 35 0 19 4 35 8 35 5 0 5 5 2
10 -4 6 -8 84 -10 173 -4 152 -11 294 -19 362 -2 17 -6 62 -10 100 -3 39 -8
81 -10 95 -3 14 -7 48 -11 75 -8 66 -15 116 -20 140 -93 448 -200 720 -382
971 -71 98 -239 266 -323 324 -19 13 -37 27 -40 30 -6 6 -34 23 -105 62 -28
15 -98 74 -155 130 -58 57 -120 114 -139 128 -19 14 -39 30 -45 36 -25 24
-185 119 -256 152 -130 60 -196 86 -202 82 -2 -1 -16 4 -33 10 -30 12 -37 14
-110 31 -64 16 -183 38 -234 44 -25 3 -63 7 -83 10 -20 3 -87 7 -148 10 -62 3
-116 7 -120 10 -4 2 -9 2 -12 -1z"/>
</g>
</svg>
